<?xml version="1.0" encoding="UTF-8" standalone="no"?>
<svg
   xmlns:dc="http://purl.org/dc/elements/1.1/"
   xmlns:cc="http://creativecommons.org/ns#"
   xmlns:rdf="http://www.w3.org/1999/02/22-rdf-syntax-ns#"
   xmlns:svg="http://www.w3.org/2000/svg"
   xmlns="http://www.w3.org/2000/svg"
   xmlns:sodipodi="http://sodipodi.sourceforge.net/DTD/sodipodi-0.dtd"
   xmlns:inkscape="http://www.inkscape.org/namespaces/inkscape"
   viewBox="0 0 45 45"
   style="enable-background:new 0 0 45 45;"
   xml:space="preserve"
   version="1.1"
   id="svg2"
   sodipodi:docname="Twemoji2_1f357.svg"
   inkscape:version="0.92.3 (2405546, 2018-03-11)"><sodipodi:namedview
     pagecolor="#ffffff"
     bordercolor="#666666"
     borderopacity="1"
     objecttolerance="10"
     gridtolerance="10"
     guidetolerance="10"
     inkscape:pageopacity="0"
     inkscape:pageshadow="2"
     inkscape:window-width="1920"
     inkscape:window-height="1018"
     id="namedview14"
     showgrid="false"
     inkscape:zoom="5.2444444"
     inkscape:cx="22.5"
     inkscape:cy="22.5"
     inkscape:window-x="-8"
     inkscape:window-y="-8"
     inkscape:window-maximized="1"
     inkscape:current-layer="svg2" /><metadata
     id="metadata8"><rdf:RDF><cc:Work
         rdf:about=""><dc:format>image/svg+xml</dc:format><dc:type
           rdf:resource="http://purl.org/dc/dcmitype/StillImage" /></cc:Work></rdf:RDF></metadata><defs
     id="defs6"><clipPath
       id="clipPath16"
       clipPathUnits="userSpaceOnUse"><path
         id="path18"
         d="M 0,36 36,36 36,0 0,0 0,36 Z" /></clipPath></defs><g
     transform="matrix(0,-1.25,-1.25,0,45.463032,45.27725)"
     id="g10"><g
       id="g12"><g
         clip-path="url(#clipPath16)"
         id="g14"><g
           transform="translate(14.0171,25.6323)"
           id="g20"><path
             id="path22"
             style="fill:#ffd983;fill-opacity:1;fill-rule:nonzero;stroke:none"
             d="m 0,0 -5.844,5.844 c 0.846,1.017 0.804,2.525 -0.15,3.479 -1.011,1.011 -2.65,1.011 -3.662,0 -0.621,-0.621 -0.856,-1.479 -0.715,-2.282 -0.804,0.141 -1.661,-0.095 -2.282,-0.716 -1.011,-1.011 -1.011,-2.651 0,-3.662 0.954,-0.954 2.462,-0.995 3.479,-0.149 L -3.33,-3.33 Z"
             inkscape:connector-curvature="0" /></g><g
           transform="translate(32.9541,3.3643)"
           id="g24"><path
             id="path26"
             style="fill:#c1694f;fill-opacity:1;fill-rule:nonzero;stroke:none"
             d="m 0,0 c 1.665,1.665 5.874,8.809 0.046,14.636 -4.059,4.058 -7.328,3.826 -13.416,5.335 -2.497,0.832 -5.752,3.832 -6.584,4.665 -0.833,-0.833 -0.542,-3.874 -0.542,-3.874 0,0 -3.626,-0.294 -4.458,-1.126 0.832,-0.833 4.699,-4.49 5.375,-6.207 1.821,-5.775 1.613,-8.711 5.671,-12.77 C -7.248,-6 -1.664,-1.664 0,0"
             inkscape:connector-curvature="0" /></g></g></g></g></svg>